<svg width="110" height="30" viewBox="0 0 110 30" fill="none" xmlns="http://www.w3.org/2000/svg">
<path fill-rule="evenodd" clip-rule="evenodd" d="M50.9885 13.3015C51.2708 12.3557 51.7979 11.6419 52.5695 11.1614C53.3409 10.6807 54.2466 10.44 55.2863 10.44C56.3104 10.44 57.1971 10.6807 57.947 11.1614C58.6967 11.6419 59.2125 12.3401 59.4945 13.2567L64.0588 27.9926H60.2288L55.8208 14.7638C55.7309 14.4783 55.5599 14.3355 55.3082 14.3355C55.0703 14.3355 54.9073 14.4783 54.8177 14.7638L50.4981 27.9926H46.4684L50.9885 13.3015ZM3.80584 15.2325C3.80584 15.0087 3.8612 14.803 3.97241 14.6162C4.08313 14.4293 4.23534 14.3209 4.42794 14.291C4.65072 14.246 4.84721 14.2943 5.01804 14.4369C5.18813 14.5797 5.31053 14.77 5.38439 15.0094L5.5849 15.6607L8.3866 25.61C8.66839 26.5841 9.26834 27.3173 10.1879 27.8114C10.9734 28.2304 11.9519 28.44 13.1235 28.44C14.4571 28.44 15.4652 28.0499 16.147 27.2695C16.8289 26.4884 17.1703 25.3772 17.1703 23.9353V10.8255H13.3206V24.0717C13.3206 24.3865 13.1496 24.5738 12.8081 24.6342C12.6143 24.679 12.4402 24.6309 12.2844 24.4881C12.1283 24.3459 12.0211 24.1705 11.9616 23.9607L11.5826 22.7702L9.1328 14.0333C8.82035 12.9258 8.2339 12.0499 7.37236 11.4062C6.51081 10.7627 5.50898 10.44 4.36601 10.44C2.98432 10.44 1.95974 10.7022 1.29165 11.2263C0.430103 11.9155 0 13.114 0 14.8211V27.9646H3.80584V16.1287V15.2325ZM30.1417 27.9926L26.0226 15.0094C25.9775 14.845 25.9031 14.7065 25.7993 14.5938C25.6954 14.4817 25.569 14.4253 25.421 14.4253C25.0946 14.4253 24.8719 14.628 24.7532 15.0323L20.6789 27.9926L16.604 27.9646L21.0792 13.3867C21.3759 12.4422 21.9291 11.7147 22.7381 11.2046C23.5472 10.6953 24.4563 10.44 25.4658 10.44C27.3211 10.44 28.6572 11.2711 29.4737 12.9328L29.6293 13.2476L32.9919 24.0739L33.1252 24.3208H41.9875C42.4171 24.3208 42.7771 24.1572 43.0671 23.8288C43.3562 23.5012 43.5014 23.1077 43.5014 22.6496C43.5014 22.2682 43.3939 21.9442 43.1789 21.677C42.9643 21.4096 42.694 21.2758 42.3681 21.2758H41.8129H36.8373C35.534 21.2758 34.4453 20.7129 33.5711 19.5863C32.7566 18.5348 32.3496 17.2958 32.3496 15.8684C32.3496 14.3811 32.7571 13.1798 33.5744 12.2632C34.4646 11.2571 35.7418 10.7534 37.4052 10.7534H46.5578V14.4253H37.5777C37.1628 14.4253 36.8288 14.6006 36.5772 14.9512C36.3252 15.3024 36.1995 15.7088 36.1995 16.1713C36.1995 16.5744 36.3178 16.9214 36.5551 17.2125C36.7916 17.5035 37.0948 17.649 37.4658 17.649H37.6879H42.2645C43.686 17.649 44.8819 18.1011 45.852 19.0043C46.8221 19.9084 47.307 21.1126 47.307 22.6172C47.307 24.0625 46.889 25.3053 46.0536 26.3439C45.1723 27.4432 44.0777 27.9926 42.7664 27.9926H42.1208H34.0158H30.1417Z" fill="#DCEBEA"/>
<path d="M104.145 8.62002C102.285 8.62002 100.845 7.18001 100.845 5.38001C100.845 3.58001 102.285 2.14001 104.145 2.14001C106.065 2.14001 107.385 3.59201 107.385 5.38001V5.74001H102.585C102.705 6.52001 103.365 7.18001 104.145 7.18001C105.225 7.18001 105.525 6.46001 105.525 6.46001H107.325C107.325 6.46001 106.785 8.62002 104.145 8.62002ZM102.645 4.72001H105.585C105.465 4.12001 104.925 3.58001 104.145 3.58001C103.365 3.58001 102.825 4.12001 102.645 4.72001Z" fill="#DCEBEA"/>
<path d="M96.3416 8.44001V2.32001H98.0216V3.22001H98.0816C98.0816 3.22001 98.4416 2.20001 99.6416 2.20001H100.362V3.82001H99.4616C98.5616 3.82001 98.0216 4.36001 98.0216 5.20001V8.44001H96.3416Z" fill="#DCEBEA"/>
<path d="M92.0175 8.62002C90.0975 8.62002 88.6575 7.18001 88.6575 5.38001C88.6575 3.58001 90.0975 2.14001 92.0175 2.14001C93.9375 2.14001 95.3775 3.58001 95.3775 5.38001C95.3775 7.18001 93.9375 8.62002 92.0175 8.62002ZM92.0175 7.18001C92.9175 7.18001 93.6375 6.46001 93.6375 5.38001C93.6375 4.30001 92.9175 3.58001 92.0175 3.58001C91.1175 3.58001 90.3975 4.30001 90.3975 5.38001C90.3975 6.46001 91.1175 7.18001 92.0175 7.18001Z" fill="#DCEBEA"/>
<path d="M84.583 8.44V3.76H83.803V2.32H84.583V1H86.263V2.32H88.003V3.76H86.263V7H88.063V8.44H84.583Z" fill="#DCEBEA"/>
<path d="M80.5598 8.62002C77.9198 8.62002 77.4998 6.46001 77.4998 6.46001H79.2398C79.2398 6.46001 79.4918 7.24002 80.5598 7.24002C81.3398 7.24002 81.5798 7.00001 81.5798 6.64001C81.5798 5.68001 77.7998 6.40002 77.7998 4.00002C77.7998 3.04001 78.6998 2.14001 80.3798 2.14001C82.9598 2.14001 83.2598 4.12001 83.2598 4.12001H81.5798C81.5798 4.12001 81.3998 3.52002 80.3798 3.52002C79.7798 3.52002 79.5398 3.76001 79.5398 4.00002C79.5398 4.96001 83.3198 4.24001 83.3198 6.64001C83.3198 7.66001 82.3598 8.62002 80.5598 8.62002Z" fill="#DCEBEA"/>
<path d="M71 5.44L72.654 9.48509L75.3301 12.94L71 12.3498L66.6699 12.94L69.346 9.48509L71 5.44Z" fill="#DCEBEA"/>
</svg>
