<svg width="80" height="40" viewBox="0 0 80 40" fill="none" xmlns="http://www.w3.org/2000/svg">
<rect width="80" height="40" rx="8" fill="white" fill-opacity="0.05"/>
<mask id="mask0_92_22" style="mask-type:luminance" maskUnits="userSpaceOnUse" x="8" y="8" width="64" height="24">
<path d="M72 8H8V32H72V8Z" fill="white"/>
</mask>
<g mask="url(#mask0_92_22)">
<path d="M41.042 15.9496L44.0868 15.7508C44.1563 16.2535 44.2837 16.6276 44.492 16.8965C44.8278 17.3173 45.2909 17.5278 45.9045 17.5278C46.356 17.5278 46.7149 17.4226 46.958 17.2004C47.1896 17.0251 47.3285 16.7445 47.3285 16.4522C47.3285 16.1717 47.2012 15.9028 46.9812 15.7274C46.7496 15.517 46.2055 15.3066 45.3488 15.1196C43.9479 14.8039 42.9407 14.3831 42.3502 13.8453C41.7598 13.3426 41.424 12.6062 41.4472 11.8229C41.4472 11.2852 41.6093 10.7474 41.9103 10.3032C42.2576 9.80053 42.7323 9.40306 43.2996 9.18095C43.9132 8.91207 44.7699 8.77179 45.8466 8.77179C47.1664 8.77179 48.1736 9.01728 48.8683 9.51996C49.563 10.011 49.9798 10.8059 50.1071 11.8931L47.0969 12.0684C47.0159 11.6008 46.8538 11.2618 46.5876 11.0397C46.3213 10.8176 45.974 10.7124 45.5224 10.7124C45.152 10.7124 44.8741 10.7942 44.6888 10.9462C44.5152 11.0864 44.3994 11.2969 44.411 11.5307C44.411 11.706 44.5036 11.8697 44.6425 11.9749C44.793 12.1152 45.152 12.2438 45.7192 12.3607C47.1201 12.6646 48.1158 12.9686 48.7294 13.2842C49.343 13.5998 49.7829 13.9856 50.0492 14.4415C50.3271 14.9091 50.466 15.4469 50.4544 15.9963C50.4544 16.651 50.2692 17.3057 49.8987 17.8551C49.5167 18.4279 48.9841 18.8722 48.3589 19.141C47.699 19.4333 46.8654 19.5852 45.8697 19.5852C44.11 19.5852 42.8944 19.2462 42.2113 18.5565C41.5282 17.8668 41.123 17.0017 41.042 15.9496ZM8.72938 19.4099V8.95883H14.0666C15.0506 8.95883 15.8148 9.04066 16.3358 9.21602C16.8451 9.37968 17.2967 9.71869 17.5977 10.1746C17.9334 10.6773 18.0955 11.2618 18.084 11.8697C18.1187 12.8984 17.5977 13.8804 16.7062 14.3948C16.3589 14.5935 15.9768 14.7338 15.5832 14.8039C15.8727 14.8858 16.1621 15.026 16.4168 15.1897C16.6136 15.3534 16.7757 15.5404 16.9262 15.7392C17.0999 15.9379 17.2504 16.16 17.3777 16.3938L18.9291 19.4216H15.2938L13.5803 16.2067C13.3603 15.7976 13.1751 15.5287 13.0015 15.4002C12.7699 15.2365 12.492 15.1546 12.2142 15.1546H11.9363V19.3982H8.72938V19.4099ZM11.9363 13.1907H13.2909C13.5803 13.1673 13.8582 13.1205 14.136 13.0504C14.3444 13.0154 14.5296 12.8984 14.657 12.7231C14.9696 12.3022 14.9233 11.706 14.5412 11.3436C14.3328 11.1683 13.9276 11.0748 13.3488 11.0748H11.9363V13.1907ZM8 28.3646L11.0449 28.1658C11.1143 28.6685 11.2417 29.0426 11.4501 29.3115C11.7742 29.7323 12.2489 29.9545 12.8625 29.9545C13.314 29.9545 13.6729 29.8492 13.916 29.6271C14.1476 29.4401 14.2865 29.1712 14.2865 28.8789C14.2865 28.5984 14.1592 28.3295 13.9392 28.1542C13.7077 27.9437 13.1635 27.7333 12.2952 27.5463C10.8944 27.2306 9.88712 26.8098 9.29667 26.272C8.70622 25.7693 8.37048 25.0329 8.39363 24.2496C8.39363 23.7119 8.55572 23.1741 8.85673 22.7299C9.20405 22.2272 9.67872 21.8298 10.246 21.6076C10.8596 21.3387 11.7164 21.1985 12.793 21.1985C14.1129 21.1985 15.1201 21.444 15.8148 21.9466C16.5094 22.4493 16.9146 23.2326 17.042 24.3198L14.0319 24.4951C13.9508 24.0275 13.7887 23.6885 13.5224 23.4664C13.2677 23.2442 12.9088 23.1391 12.4573 23.1507C12.0868 23.1507 11.809 23.2326 11.6237 23.3962C11.4385 23.5365 11.3343 23.7469 11.3459 23.9808C11.3459 24.1561 11.4385 24.3198 11.5774 24.425C11.7279 24.5653 12.0868 24.6938 12.6541 24.8107C14.055 25.1147 15.0506 25.4186 15.6642 25.7343C16.2778 26.0499 16.7178 26.4357 16.9841 26.8916C17.2619 27.3592 17.4008 27.897 17.4008 28.4347C17.4008 29.0894 17.204 29.7323 16.8451 30.2818C16.4631 30.8546 15.9305 31.2988 15.3054 31.5677C14.6455 31.86 13.8119 32.0119 12.8162 32.0119C11.0564 32.0119 9.84081 31.6729 9.15774 30.9832C8.47467 30.2818 8.09262 29.4167 8 28.3646Z" fill="#D2E5E4"/>
<path d="M23.3978 27.5461L26.1996 28.3995C26.049 29.1126 25.7365 29.7906 25.3081 30.3868C24.9144 30.9129 24.3935 31.3221 23.8031 31.5909C23.201 31.8598 22.4369 32.0001 21.5107 32.0001C20.3877 32.0001 19.4615 31.8364 18.7553 31.5091C18.0375 31.1818 17.4239 30.5973 16.9029 29.7673C16.3819 28.9373 16.1272 27.8735 16.1272 26.5758C16.1272 24.8457 16.5787 23.513 17.4933 22.5895C18.408 21.6659 19.693 21.1984 21.3602 21.1984C22.6685 21.1984 23.6872 21.4672 24.4398 21.9933C25.1808 22.531 25.7365 23.3493 26.107 24.4482L23.2821 25.0795C23.2126 24.834 23.1084 24.5885 22.9695 24.3781C22.7958 24.1326 22.5758 23.9456 22.3096 23.8053C22.0432 23.665 21.7423 23.6066 21.4412 23.6066C20.7119 23.6066 20.1561 23.8988 19.7741 24.495C19.4847 24.9275 19.3342 25.6172 19.3342 26.5525C19.3342 27.7098 19.5078 28.5047 19.8552 28.9373C20.2024 29.3698 20.6887 29.5802 21.3255 29.5802C21.9391 29.5802 22.4022 29.4049 22.7148 29.0658C23.0273 28.7034 23.2589 28.2008 23.3978 27.5461ZM29.9391 21.3737H33.1344V25.0327H36.6308V21.3737H39.8494V31.8248H36.6308V27.5929H33.1344V31.8248H29.9391V21.3737Z" fill="#D2E5E4"/>
<path d="M39.4094 26.5992C39.4094 24.8924 39.8841 23.5597 40.8218 22.6129C41.7596 21.6659 43.0794 21.1866 44.7582 21.1866C46.4832 21.1866 47.803 21.6543 48.7408 22.5895C49.6786 23.5247 50.1417 24.834 50.1417 26.5174C50.1417 27.7449 49.9333 28.7385 49.5281 29.5218C49.1345 30.2933 48.5209 30.9246 47.7683 31.3454C46.9926 31.778 46.0317 32.0001 44.8855 32.0001C43.7162 32.0001 42.7553 31.813 41.9912 31.4389C41.2039 31.0415 40.5556 30.4219 40.1272 29.662C39.6525 28.8437 39.4094 27.8267 39.4094 26.5992ZM42.6048 26.6109C42.6048 27.663 42.8016 28.4229 43.1836 28.8905C43.5657 29.3464 44.0983 29.5802 44.7698 29.5802C45.4528 29.5802 45.9854 29.3581 46.3674 28.9022C46.7495 28.4463 46.9347 27.6396 46.9347 26.4706C46.9347 25.4886 46.7379 24.7638 46.3443 24.3196C45.9506 23.8637 45.4181 23.6416 44.7466 23.6416C44.1562 23.6182 43.5889 23.8754 43.1952 24.3313C42.8016 24.7872 42.6048 25.5471 42.6048 26.6109ZM53.4181 26.5992C53.4181 24.8924 53.8928 23.5597 54.8306 22.6129C55.7683 21.6659 57.0883 21.1866 58.7669 21.1866C60.4921 21.1866 61.8234 21.6543 62.7495 22.5895C63.6756 23.5247 64.1504 24.834 64.1504 26.5174C64.1504 27.7449 63.9419 28.7385 63.5368 29.5218C63.1434 30.2933 62.5297 30.9246 61.7768 31.3454C61.0012 31.778 60.0403 32.0001 58.8944 32.0001C57.725 32.0001 56.7641 31.813 55.9998 31.4389C55.2125 31.0415 54.5642 30.4219 54.1359 29.662C53.6612 28.8437 53.4181 27.8267 53.4181 26.5992ZM56.6135 26.6109C56.6135 27.663 56.8102 28.4229 57.1923 28.8905C57.5744 29.3464 58.1071 29.5802 58.7786 29.5802C59.4615 29.5802 59.9942 29.3581 60.3763 28.9022C60.7584 28.4463 60.9434 27.6396 60.9434 26.4706C60.9434 25.4886 60.7466 24.7638 60.3528 24.3196C59.9594 23.8637 59.4267 23.6416 58.7551 23.6416C58.165 23.6182 57.5862 23.8754 57.2041 24.3313C56.8102 24.7872 56.6135 25.5471 56.6135 26.6109Z" fill="#D2E5E4"/>
<path d="M63.8152 21.3738H67.0105V29.253H72.0002V31.8249H63.8035V21.3738H63.8152Z" fill="#D2E5E4"/>
<mask id="mask1_92_22" style="mask-type:alpha" maskUnits="userSpaceOnUse" x="48" y="7" width="18" height="17">
<path d="M60.4629 20.3961C63.6798 17.9482 64.6718 13.7986 62.6784 11.1277C60.685 8.45678 56.4615 8.27602 53.2442 10.724C50.0272 13.1719 49.0351 17.3215 51.0285 19.9924C53.0218 22.6633 57.2455 22.8441 60.4629 20.3961Z" stroke="#D2E5E4" stroke-width="3" stroke-miterlimit="10"/>
</mask>
<g mask="url(#mask1_92_22)">
<path d="M60.4629 20.3961C63.6798 17.9482 64.6718 13.7986 62.6784 11.1277C60.685 8.45678 56.4615 8.27602 53.2442 10.724C50.0272 13.1719 49.0351 17.3215 51.0285 19.9924C53.0218 22.6633 57.2455 22.8441 60.4629 20.3961Z" fill="#D2E5E4"/>
</g>
<path d="M53.5999 15.1664L54.7577 14.3481L56.1817 16.3939C56.425 16.7213 56.6099 17.0719 56.7492 17.4577C56.8302 17.75 56.8071 18.0656 56.6913 18.3462C56.5407 18.6969 56.2974 18.9892 55.9732 19.1996C55.5911 19.4685 55.2669 19.6204 54.9892 19.6672C54.723 19.714 54.4451 19.6672 54.1904 19.5503C53.9125 19.41 53.6694 19.2113 53.4841 18.9541L54.4798 18.0189C54.5608 18.1475 54.6651 18.2644 54.7808 18.3579C54.8619 18.4163 54.9545 18.4514 55.0587 18.4514C55.1397 18.4514 55.2208 18.4163 55.2786 18.3696C55.3944 18.2994 55.4753 18.1591 55.464 18.0189C55.4292 17.8201 55.3483 17.6214 55.2208 17.4695L53.5999 15.1664ZM57.073 16.4641L58.1266 15.6224C58.2424 15.7627 58.393 15.8679 58.5549 15.9263C58.7864 15.9965 59.0297 15.9497 59.2264 15.7977C59.3657 15.7042 59.4814 15.5756 59.5276 15.4119C59.5972 15.2015 59.4814 14.9677 59.273 14.8976C59.2382 14.8859 59.2033 14.8742 59.1685 14.8742C59.0297 14.8625 58.7864 14.921 58.4278 15.0729C57.8372 15.3184 57.3742 15.4119 57.0269 15.3769C56.6913 15.3418 56.3784 15.1664 56.1934 14.8742C56.0542 14.6755 55.985 14.4417 55.9732 14.2079C55.9732 13.939 56.0429 13.6701 56.1934 13.448C56.4132 13.1324 56.6796 12.8635 57.0038 12.6531C57.4899 12.3141 57.9182 12.1504 58.289 12.1504C58.6593 12.1504 59.0066 12.3257 59.3309 12.6881L58.289 13.5182C58.0805 13.2493 57.6866 13.1908 57.4203 13.4012L57.3859 13.4363C57.2702 13.5064 57.1887 13.6117 57.1426 13.7403C57.1078 13.8338 57.1309 13.939 57.1887 14.0208C57.2353 14.0793 57.3045 14.126 57.3859 14.126C57.4782 14.1377 57.6405 14.091 57.872 13.9857C58.4509 13.7403 58.8909 13.6 59.192 13.5532C59.4466 13.5064 59.713 13.5298 59.9558 13.6351C60.176 13.7286 60.361 13.8922 60.4885 14.091C60.6504 14.3247 60.7431 14.6053 60.7549 14.8976C60.7662 15.2015 60.6852 15.4938 60.5233 15.751C60.3149 16.0666 60.0485 16.3355 59.736 16.5459C59.0993 16.9901 58.5784 17.1772 58.1614 17.1071C57.7097 17.0369 57.3393 16.8031 57.073 16.4641Z" fill="#D2E5E4"/>
</g>
</svg>
