<svg width="38" height="38" viewBox="0 0 38 38" fill="none" xmlns="http://www.w3.org/2000/svg">
<g clip-path="url(#clip0_1107_1922)">
<path opacity="0.16" d="M14.0909 1H4.27273C2.46525 1 1 2.46525 1 4.27273V14.0909" stroke="#DCEBEA" stroke-width="1.63636" stroke-linecap="round"/>
<path opacity="0.16" d="M23.9091 1H33.7273C35.5348 1 37 2.46525 37 4.27273V14.0909" stroke="#DCEBEA" stroke-width="1.63636" stroke-linecap="round"/>
<path opacity="0.16" d="M14.0909 37H4.27273C2.46525 37 1 35.5348 1 33.7273V23.9091" stroke="#DCEBEA" stroke-width="1.63636" stroke-linecap="round"/>
<path opacity="0.16" d="M23.9091 37H33.7273C35.5348 37 37 35.5348 37 33.7273V23.9091" stroke="#DCEBEA" stroke-width="1.63636" stroke-linecap="round"/>
<path d="M30.454 16.5678C30.4481 15.0155 29.9143 13.5117 28.9406 12.3051C29.2711 10.9255 29.168 9.47711 28.6453 8.15865C28.5945 8.03336 28.5166 7.92094 28.4172 7.82949C28.3178 7.73804 28.1994 7.66983 28.0706 7.62977C27.7015 7.50284 26.3041 7.26484 23.4566 9.11592C22.232 8.79175 20.9686 8.6387 19.7022 8.66108C18.4341 8.63841 17.1689 8.79147 15.9425 9.11592C13.0212 7.22253 11.5025 7.52928 11.1967 7.61919C11.0672 7.66104 10.9485 7.7311 10.8491 7.82437C10.7497 7.91763 10.6722 8.03178 10.6219 8.15865C10.098 9.47282 9.99118 10.9172 10.3161 12.2945C9.31065 13.4951 8.77466 15.0214 8.808 16.589C8.808 22.4384 12.1459 24.2048 15.2042 24.8289C15.0473 25.214 14.9392 25.6173 14.8826 26.0294C14.8771 26.0733 14.8771 26.1178 14.8826 26.1617V27.78C12.0984 28.0127 11.5025 26.3785 11.4445 26.1934C11.431 26.1502 11.4152 26.1079 11.3971 26.0665C10.8593 24.966 9.91269 24.121 8.76054 23.7129C8.52839 23.6351 8.27491 23.6529 8.05587 23.7625C7.83683 23.8721 7.67017 24.0645 7.59255 24.2974C7.51493 24.5302 7.53272 24.7844 7.64199 25.0041C7.75126 25.2238 7.94307 25.391 8.17523 25.4688C8.8137 25.7002 9.34615 26.1571 9.67278 26.754C10.0419 27.9545 11.55 29.8532 14.872 29.6417V31.1648C14.872 31.4103 14.9693 31.6457 15.1423 31.8193C15.3154 31.9929 15.5501 32.0904 15.7948 32.0904C16.0396 32.0904 16.2743 31.9929 16.4473 31.8193C16.6204 31.6457 16.7176 31.4103 16.7176 31.1648V26.2304C16.7876 25.6915 17.0215 25.1874 17.3873 24.7866C17.5155 24.6663 17.6065 24.5116 17.6497 24.3409C17.6928 24.1703 17.6862 23.9908 17.6307 23.8237C17.5752 23.6567 17.4731 23.5091 17.3365 23.3986C17.1999 23.288 17.0345 23.2191 16.86 23.1999C13.6434 22.8244 10.6694 21.7614 10.6694 16.5519C10.648 15.9231 10.7569 15.2967 10.9893 14.7122C11.2217 14.1278 11.5724 13.5981 12.0193 13.1565C12.1395 13.0268 12.2225 12.8669 12.2597 12.6938C12.2968 12.5206 12.2866 12.3407 12.2302 12.1728C11.9196 11.2675 11.8993 10.2873 12.1722 9.36978C13.3045 9.62617 14.3678 10.126 15.2886 10.8348C15.4069 10.9133 15.5414 10.9641 15.682 10.9833C15.8226 11.0025 15.9657 10.9897 16.1007 10.9458C17.2723 10.5882 18.4937 10.4221 19.718 10.454C20.9406 10.422 22.1603 10.5881 23.3301 10.9458C23.465 10.9901 23.6082 11.0031 23.7488 10.9839C23.8895 10.9647 24.024 10.9137 24.1421 10.8348C25.0291 10.1532 26.0443 9.65845 27.1267 9.38036C27.3955 10.308 27.3716 11.2964 27.0581 12.2099C27.0065 12.3623 26.9959 12.5257 27.0274 12.6836C27.0589 12.8414 27.1313 12.9882 27.2374 13.1089C28.1104 14.0438 28.6048 15.2713 28.6243 16.5519C28.6243 21.7508 25.4973 22.8297 22.4336 23.1999C22.2502 23.2204 22.0772 23.2959 21.9372 23.4165C21.7972 23.5371 21.6968 23.6972 21.6489 23.876C21.6011 24.0548 21.6081 24.2439 21.6691 24.4186C21.7301 24.5933 21.8421 24.7455 21.9907 24.8553C22.3176 25.1039 22.6973 25.802 22.6973 26.9708V31.1595C22.6973 31.405 22.7945 31.6404 22.9676 31.814C23.1406 31.9876 23.3754 32.0851 23.6201 32.0851C23.8648 32.0851 24.0995 31.9876 24.2726 31.814C24.4457 31.6404 24.5429 31.405 24.5429 31.1595V26.9708C24.5525 26.2343 24.4182 25.503 24.1474 24.8183C26.6258 24.2894 30.454 22.6552 30.454 16.5678Z" fill="#DCEBEA"/>
</g>
<defs>
<clipPath id="clip0_1107_1922">
<rect width="38" height="38" fill="white"/>
</clipPath>
</defs>
</svg>
