<svg width="36" height="36" viewBox="0 0 36 36" fill="none" xmlns="http://www.w3.org/2000/svg">
<path d="M14.8359 31.7812H21.1641V25.4531H14.8359V31.7812ZM16.9453 27.5625H19.0547V29.6719H16.9453V27.5625Z" fill="#C24A4A"/>
<path d="M23.9587 2.10938C22.3286 0.791016 20.2549 0 18 0C15.7451 0 13.6714 0.791016 12.0413 2.10938H4.28906V19.1882C2.98499 20.5329 2.17969 22.3723 2.17969 24.3984V36H33.8203V24.3984C33.8203 22.3723 33.015 20.5329 31.7109 19.1882V2.10938H23.9587ZM31.7109 25.4531H27.4922V19.1621C29.8963 19.6587 31.7109 21.8177 31.7109 24.3984V25.4531ZM25.3828 9.49219C25.3828 10.2074 25.2823 10.8993 25.095 11.5543C23.2457 12.3022 20.6955 12.7266 18 12.7266C15.3045 12.7266 12.7543 12.3022 10.9048 11.5543C10.7177 10.8993 10.6172 10.2074 10.6172 9.49219C10.6172 8.80472 10.7119 8.13895 10.8885 7.50696C12.7395 6.75494 15.2968 6.32812 18 6.32812C20.7032 6.32812 23.2605 6.75494 25.1115 7.50696C25.2881 8.13895 25.3828 8.80472 25.3828 9.49219ZM18 14.8359C20.0322 14.8359 22.0073 14.6085 23.7263 14.1908C22.3717 15.8703 20.308 16.9453 18 16.9453C15.692 16.9453 13.6283 15.8703 12.2737 14.1908C13.9927 14.6085 15.9678 14.8359 18 14.8359ZM12.0874 16.9673C13.7104 18.273 15.7662 19.0547 18 19.0547C20.2338 19.0547 22.2896 18.273 23.9126 16.9673L25.3828 18.4364V18.5062C23.3097 20.2231 20.7062 21.1641 18 21.1641C15.2938 21.1641 12.6903 20.2231 10.6172 18.5062V18.4364L12.0874 16.9673ZM27.4922 27.5625H31.7109V29.6719H27.4922V27.5625ZM29.6016 17.6655C28.7707 17.2658 27.8547 17.0189 26.8893 16.9596L25.4009 15.4726C26.7086 13.8337 27.4922 11.7534 27.4922 9.49219C27.4922 7.54239 26.9008 5.728 25.8887 4.21875H29.6016V17.6655ZM18 2.10938C20.3228 2.10938 22.3981 3.18796 23.7524 4.87051C22.0273 4.44864 20.0424 4.21875 18 4.21875C15.9576 4.21875 13.9727 4.44864 12.2476 4.87051C13.6019 3.18796 15.6772 2.10938 18 2.10938ZM10.1113 4.21875C9.09915 5.728 8.50781 7.54239 8.50781 9.49219C8.50781 11.7534 9.29141 13.8337 10.5991 15.4726L9.11069 16.9596C8.14526 17.0189 7.22928 17.2658 6.39844 17.6655V4.21875H10.1113ZM8.50781 19.1621V25.4531H4.28906V24.3984C4.28906 21.8177 6.10373 19.6587 8.50781 19.1621ZM8.50781 27.5625V29.6719H4.28906V27.5625H8.50781ZM4.28906 33.8906V31.7812H8.50781V33.8906H4.28906ZM10.6172 33.8906V21.1141C12.8068 22.5173 15.3625 23.2734 18 23.2734C20.6375 23.2734 23.1932 22.5173 25.3828 21.1141V33.8906H10.6172ZM27.4922 33.8906V31.7812H31.7109V33.8906H27.4922Z" fill="#DCEBEA"/>
</svg>
