<svg width="20" height="20" viewBox="0 0 20 20" fill="none" xmlns="http://www.w3.org/2000/svg">
<path d="M18.3333 7.29134H17L16.2416 1.99551C16.2 1.69134 15.9333 1.45801 15.625 1.45801H4.37496C4.06663 1.45801 3.79996 1.68717 3.75829 1.99551L2.99996 7.29134H1.66663C1.32079 7.29134 1.04163 7.57051 1.04163 7.91634V9.58301C1.04163 9.92884 1.32079 10.208 1.66663 10.208H1.93329L2.70829 17.9788C2.74163 18.2997 3.01246 18.5413 3.33329 18.5413H16.6666C16.9875 18.5413 17.2583 18.2997 17.2875 17.9788L18.0625 10.208H18.3333C18.6791 10.208 18.9583 9.92884 18.9583 9.58301V7.91634C18.9583 7.57051 18.6791 7.29134 18.3333 7.29134ZM4.91663 2.70801H15.0833L15.7375 7.29134H4.26246L4.91663 2.70801ZM16.1 17.2913H3.89996L3.85829 16.8747H16.1416L16.1 17.2913ZM16.2666 15.6247H3.73329L3.69163 15.208H16.3125L16.2666 15.6247ZM16.4333 13.958H3.56663L3.52496 13.5413H16.475L16.4333 13.958ZM16.6 12.2913H3.39996L3.35829 11.8747H16.6416L16.6 12.2913ZM16.7666 10.6247H3.23329L3.19163 10.208H16.8083L16.7666 10.6247ZM17.7083 8.95801H2.29163V8.54134H17.7083V8.95801Z" fill="#656C71"/>
</svg>
