<svg width="60" height="60" viewBox="0 0 60 60" fill="none" xmlns="http://www.w3.org/2000/svg">
<g clip-path="url(#clip0_295_182)">
<circle cx="30" cy="30" r="30" fill="#161720"/>
<path d="M41.4287 22.8571H36.5716V22.2857C36.5716 18.6571 33.6287 15.7143 30.0001 15.7143C26.3716 15.7143 23.4287 18.6571 23.4287 22.2857V22.8571H18.5716C17.9394 22.8571 17.4287 23.3679 17.4287 24V43.1429C17.4287 43.775 17.9394 44.2857 18.5716 44.2857H41.4287C42.0609 44.2857 42.5716 43.775 42.5716 43.1429V24C42.5716 23.3679 42.0609 22.8571 41.4287 22.8571ZM26.0001 22.2857C26.0001 20.075 27.7894 18.2857 30.0001 18.2857C32.2109 18.2857 34.0001 20.075 34.0001 22.2857V22.8571H26.0001V22.2857ZM40.0001 41.7143H20.0001V25.4286H23.4287V28.5714C23.4287 28.7286 23.5573 28.8571 23.7144 28.8571H25.7144C25.8716 28.8571 26.0001 28.7286 26.0001 28.5714V25.4286H34.0001V28.5714C34.0001 28.7286 34.1287 28.8571 34.2859 28.8571H36.2859C36.443 28.8571 36.5716 28.7286 36.5716 28.5714V25.4286H40.0001V41.7143Z" fill="black"/>
<path d="M41.4287 22.8571H36.5716V22.2857C36.5716 18.6571 33.6287 15.7143 30.0001 15.7143C26.3716 15.7143 23.4287 18.6571 23.4287 22.2857V22.8571H18.5716C17.9394 22.8571 17.4287 23.3679 17.4287 24V43.1429C17.4287 43.775 17.9394 44.2857 18.5716 44.2857H41.4287C42.0609 44.2857 42.5716 43.775 42.5716 43.1429V24C42.5716 23.3679 42.0609 22.8571 41.4287 22.8571ZM26.0001 22.2857C26.0001 20.075 27.7894 18.2857 30.0001 18.2857C32.2109 18.2857 34.0001 20.075 34.0001 22.2857V22.8571H26.0001V22.2857ZM40.0001 41.7143H20.0001V25.4286H23.4287V28.5714C23.4287 28.7286 23.5573 28.8571 23.7144 28.8571H25.7144C25.8716 28.8571 26.0001 28.7286 26.0001 28.5714V25.4286H34.0001V28.5714C34.0001 28.7286 34.1287 28.8571 34.2859 28.8571H36.2859C36.443 28.8571 36.5716 28.7286 36.5716 28.5714V25.4286H40.0001V41.7143Z" fill="url(#paint0_linear_295_182)"/>
</g>
<defs>
<linearGradient id="paint0_linear_295_182" x1="17.4287" y1="30" x2="42.5716" y2="30" gradientUnits="userSpaceOnUse">
<stop stop-color="#E0B9FF"/>
<stop offset="0.435" stop-color="#A5A9FF"/>
<stop offset="1" stop-color="#B2E3FF"/>
</linearGradient>
<clipPath id="clip0_295_182">
<rect width="60" height="60" fill="white"/>
</clipPath>
</defs>
</svg>
