<svg width="16" height="16" viewBox="0 0 16 16" fill="none" xmlns="http://www.w3.org/2000/svg">
<g opacity="0.6">
<path d="M8.80017 7.99905L6.28737 5.26305C6.18429 5.15894 6.12646 5.01836 6.12646 4.87185C6.12646 4.72534 6.18429 4.58476 6.28737 4.48065C6.33799 4.42925 6.39833 4.38843 6.46487 4.36057C6.53141 4.33271 6.60283 4.31836 6.67497 4.31836C6.74711 4.31836 6.81853 4.33271 6.88507 4.36057C6.95162 4.38843 7.01195 4.42925 7.06257 4.48065L10.1266 7.60705C10.2295 7.71139 10.2872 7.85208 10.2872 7.99865C10.2872 8.14522 10.2295 8.28591 10.1266 8.39025L7.06257 11.5167C7.01195 11.5681 6.95162 11.6089 6.88507 11.6367C6.81853 11.6646 6.74711 11.6789 6.67497 11.6789C6.60283 11.6789 6.53141 11.6646 6.46487 11.6367C6.39833 11.6089 6.33799 11.5681 6.28737 11.5167C6.18429 11.4125 6.12646 11.272 6.12646 11.1255C6.12646 10.9789 6.18429 10.8384 6.28737 10.7343L8.80017 7.99905Z" fill="#D0D1D2"/>
</g>
</svg>
