<svg width="20" height="20" viewBox="0 0 20 20" fill="none" xmlns="http://www.w3.org/2000/svg">
<path d="M7.61994 17.3178V14.7621C7.61993 14.1144 8.14655 13.5883 8.79886 13.5842H11.194C11.8492 13.5842 12.3804 14.1115 12.3804 14.7621V17.3104C12.3804 17.8721 12.8368 18.3286 13.4026 18.3327H15.0367C15.7999 18.3346 16.5325 18.035 17.0728 17.4999C17.6132 16.9649 17.9168 16.2383 17.9168 15.4806V8.22089C17.9168 7.60884 17.6436 7.02828 17.1707 6.6356L11.6193 2.22791C10.6489 1.45695 9.26297 1.48186 8.32132 2.28717L2.88934 6.6356C2.39411 7.0167 2.09812 7.59898 2.0835 8.22089V15.4732C2.0835 17.0524 3.37298 18.3327 4.96364 18.3327H6.5604C6.83281 18.3346 7.09474 18.2286 7.28806 18.038C7.48138 17.8475 7.5901 17.5882 7.59009 17.3178H7.61994Z" fill="#DCEBEA"/>
</svg>
