<svg width="24" height="24" viewBox="0 0 24 24" fill="none" xmlns="http://www.w3.org/2000/svg">
<g clip-path="url(#clip0_934_1157)">
<path d="M12.002 14.0042C13.1065 14.0042 14.002 13.1087 14.002 12.0042C14.002 10.8996 13.1065 10.0042 12.002 10.0042C10.8974 10.0042 10.002 10.8996 10.002 12.0042C10.002 13.1087 10.8974 14.0042 12.002 14.0042Z" fill="#1F212D"/>
<path d="M22.33 4.76184C22.5396 4.56 22.7068 4.31856 22.8218 4.05161C22.9368 3.78467 22.9974 3.49756 22.9999 3.20703C23.0024 2.91651 22.9469 2.62839 22.8366 2.35949C22.7262 2.09059 22.5633 1.8463 22.3572 1.64086C22.1512 1.43542 21.9061 1.27295 21.6364 1.16293C21.3667 1.05292 21.0777 0.997558 20.7863 1.00008C20.4949 1.00261 20.2069 1.06297 19.9392 1.17764C19.6714 1.29231 19.4293 1.459 19.2268 1.66798C18.9562 1.93908 18.762 2.27641 18.6635 2.64608C18.5651 3.01575 18.566 3.40473 18.6661 3.77395L17.5326 4.90515C15.9547 3.83849 14.0498 3.21491 12 3.21491C9.95024 3.21491 8.04532 3.83849 6.4663 4.90515L5.33279 3.77395C5.43338 3.40485 5.43461 3.01583 5.33637 2.64611C5.23812 2.27638 5.04386 1.939 4.77316 1.66798C4.57072 1.459 4.32855 1.29231 4.0608 1.17764C3.79305 1.06297 3.50507 1.00261 3.21368 1.00008C2.92228 0.997558 2.63329 1.05292 2.36358 1.16293C2.09387 1.27295 1.84884 1.43542 1.64279 1.64086C1.43673 1.8463 1.27377 2.09059 1.16342 2.35949C1.05308 2.62839 0.997551 2.91651 1.00008 3.20703C1.00262 3.49756 1.06316 3.78467 1.17817 4.05161C1.29319 4.31856 1.46038 4.56 1.66999 4.76184C1.9418 5.03144 2.27996 5.22502 2.65053 5.32314C3.02109 5.42127 3.41103 5.42049 3.7812 5.32088L4.7995 6.33502C3.08031 8.15464 2.12299 10.5601 2.12317 13.0599V20.718C2.12317 21.5884 2.47 22.4232 3.08735 23.0387C3.7047 23.6542 4.54201 24 5.41508 24C6.28815 24 7.12546 23.6542 7.74282 23.0387C8.36017 22.4232 8.70699 21.5884 8.70699 20.718C8.70699 21.5884 9.05382 22.4232 9.67117 23.0387C10.2885 23.6542 11.1258 24 11.9989 24C12.872 24 13.7093 23.6542 14.3266 23.0387C14.944 22.4232 15.2908 21.5884 15.2908 20.718C15.2908 21.5884 15.6376 22.4232 16.255 23.0387C16.8723 23.6542 17.7097 24 18.5827 24C19.4558 24 20.2931 23.6542 20.9105 23.0387C21.5278 22.4232 21.8746 21.5884 21.8746 20.718V13.0599C21.8746 10.4562 20.853 8.09638 19.1983 6.33502L20.2166 5.32088C20.5871 5.42045 20.9774 5.42121 21.3483 5.3231C21.7192 5.22499 22.0577 5.03144 22.33 4.76184ZM11.9989 16.343C10.8348 16.343 9.7184 15.882 8.89526 15.0613C8.07212 14.2406 7.60969 13.1276 7.60969 11.967C7.60969 10.8064 8.07212 9.69333 8.89526 8.87266C9.7184 8.05199 10.8348 7.59095 11.9989 7.59095C13.163 7.59095 14.2794 8.05199 15.1025 8.87266C15.9257 9.69333 16.3881 10.8064 16.3881 11.967C16.3881 13.1276 15.9257 14.2406 15.1025 15.0613C14.2794 15.882 13.163 16.343 11.9989 16.343Z" fill="#1F212D"/>
</g>
<defs>
<clipPath id="clip0_934_1157">
<rect width="24" height="24" fill="white"/>
</clipPath>
</defs>
</svg>
