<svg width="24" height="24" viewBox="0 0 24 24" fill="none" xmlns="http://www.w3.org/2000/svg">
<path d="M1.28564 21.8572C1.28564 22.3313 1.66868 22.7143 2.14279 22.7143H21.8571C22.3312 22.7143 22.7142 22.3313 22.7142 21.8572V10.6072H1.28564V21.8572ZM21.8571 3.21429H17.3571V1.50001C17.3571 1.38215 17.2606 1.28572 17.1428 1.28572H15.6428C15.5249 1.28572 15.4285 1.38215 15.4285 1.50001V3.21429H8.57136V1.50001C8.57136 1.38215 8.47493 1.28572 8.35707 1.28572H6.85707C6.73922 1.28572 6.64279 1.38215 6.64279 1.50001V3.21429H2.14279C1.66868 3.21429 1.28564 3.59733 1.28564 4.07144V8.78572H22.7142V4.07144C22.7142 3.59733 22.3312 3.21429 21.8571 3.21429Z" fill="#D2E5E4" fill-opacity="0.4"/>
</svg>
