<svg width="24" height="24" viewBox="0 0 24 24" fill="none" xmlns="http://www.w3.org/2000/svg">
<path d="M3 5.63355C3 6.19581 3.44866 6.64968 4.00446 6.64968H4.54018V18.6535C4.54018 20.5029 6.02009 22 7.84152 22H16.1585C17.9799 22 19.4598 20.5029 19.4598 18.6535V6.64968H19.9955C20.5513 6.64968 21 6.19581 21 5.63355C21 5.07129 20.5513 4.61742 19.9955 4.61742H16.4799V3.56742C16.4799 2.15161 15.3415 1 13.942 1H10.058C8.65848 1 7.52009 2.15161 7.52009 3.56742V4.61742H4.00446C3.44866 4.61742 3 5.07129 3 5.63355ZM15.5022 9.53548V17.0819C15.5022 17.6442 15.0536 18.0981 14.4978 18.0981C13.942 18.0981 13.4933 17.6442 13.4933 17.0819V9.53548C13.4933 8.97323 13.942 8.51936 14.4978 8.51936C15.0536 8.51936 15.5022 8.97323 15.5022 9.53548ZM9.52902 3.56742C9.52902 3.26935 9.76339 3.03226 10.058 3.03226H13.942C14.2366 3.03226 14.471 3.26935 14.471 3.56742V4.61742H9.52902V3.56742ZM8.49777 9.53548C8.49777 8.97323 8.94643 8.51936 9.50223 8.51936C10.058 8.51936 10.5067 8.97323 10.5067 9.53548V17.0819C10.5067 17.6442 10.058 18.0981 9.50223 18.0981C8.94643 18.0981 8.49777 17.6442 8.49777 17.0819V9.53548Z" fill="#D2E5E4" fill-opacity="0.4"/>
</svg>
