<svg width="24" height="24" viewBox="0 0 24 24" fill="none" xmlns="http://www.w3.org/2000/svg">
<path d="M11.8929 15C12.6885 15 13.4516 14.6839 14.0142 14.1213C14.5768 13.5587 14.8929 12.7957 14.8929 12C14.8929 11.9121 14.8889 11.8251 14.8814 11.7391L11.632 14.9885C11.718 14.996 11.8048 15 11.8929 15ZM21.8229 2.72036L20.6786 1.57715C20.6384 1.53699 20.5839 1.51443 20.5271 1.51443C20.4703 1.51443 20.4158 1.53699 20.3757 1.57715L17.4474 4.50617C15.8321 3.68063 14.0163 3.26786 12 3.26786C6.85182 3.26786 3.01075 5.94911 0.476818 11.3116C0.374967 11.5273 0.322144 11.7628 0.322144 12.0013C0.322144 12.2399 0.374967 12.4754 0.476818 12.6911C1.48932 14.8238 2.70851 16.5331 4.13441 17.8192L1.30075 20.6518C1.26059 20.692 1.23803 20.7465 1.23803 20.8033C1.23803 20.8601 1.26059 20.9146 1.30075 20.9547L2.44423 22.0982C2.48441 22.1384 2.53889 22.1609 2.5957 22.1609C2.65251 22.1609 2.70699 22.1384 2.74718 22.0982L21.8229 3.02358C21.8428 3.00368 21.8586 2.98004 21.8694 2.95403C21.8802 2.92801 21.8857 2.90013 21.8857 2.87197C21.8857 2.84381 21.8802 2.81592 21.8694 2.78991C21.8586 2.7639 21.8428 2.74026 21.8229 2.72036ZM7.1786 12C7.17853 11.1857 7.38937 10.3853 7.79057 9.67676C8.19178 8.96819 8.76967 8.37562 9.46796 7.95678C10.1662 7.53794 10.9611 7.3071 11.7751 7.28676C12.5892 7.26642 13.3946 7.45727 14.1129 7.84072L12.8106 9.14304C12.2854 8.97487 11.724 8.95462 11.188 9.0845C10.652 9.21439 10.1622 9.4894 9.77224 9.87936C9.38228 10.2693 9.10727 10.7591 8.97739 11.2951C8.8475 11.8311 8.86775 12.3925 9.03593 12.9177L7.7336 14.22C7.36814 13.5372 7.17746 12.7745 7.1786 12Z" fill="#D2E5E4" fill-opacity="0.4"/>
<path d="M23.5232 11.3089C22.5804 9.3232 21.4581 7.704 20.1565 6.45132L16.2956 10.3125C16.6211 11.1632 16.6932 12.09 16.5033 12.9809C16.3134 13.8718 15.8696 14.6886 15.2256 15.3327C14.5815 15.9768 13.7646 16.4206 12.8738 16.6105C11.9829 16.8003 11.0561 16.7282 10.2054 16.4028L6.93054 19.6776C8.44983 20.3806 10.1396 20.7321 12 20.7321C17.1482 20.7321 20.9893 18.0509 23.5232 12.6884C23.6251 12.4727 23.6779 12.2372 23.6779 11.9986C23.6779 11.7601 23.6251 11.5246 23.5232 11.3089Z" fill="#D2E5E4" fill-opacity="0.4"/>
</svg>
