<svg width="24" height="24" viewBox="0 0 24 24" fill="none" xmlns="http://www.w3.org/2000/svg">
<path d="M12.5311 6.16576L3.75005 14.9468C3.62906 15.0678 3.55311 15.2266 3.5348 15.3968L3.00455 20.1675C2.99295 20.2723 3.00359 20.3784 3.03576 20.4788C3.06794 20.5793 3.12093 20.6718 3.19128 20.7503C3.26163 20.8289 3.34776 20.8917 3.44404 20.9348C3.54032 20.9778 3.6446 21 3.75005 21C3.77761 21 3.80515 20.9985 3.83255 20.9955L8.6063 20.4653C8.77647 20.447 8.93525 20.371 9.0563 20.25L17.8343 11.4698L12.5311 6.16576ZM21.2731 4.84876L19.1513 2.72701C18.7294 2.3052 18.1572 2.06824 17.5606 2.06824C16.9639 2.06824 16.3917 2.3052 15.9698 2.72701L13.5916 5.10526L18.8948 10.4093L21.2738 8.03026C21.6955 7.60822 21.9323 7.03597 21.9322 6.43935C21.9321 5.84273 21.695 5.2706 21.2731 4.84876Z" fill="#D2E5E4" fill-opacity="0.4"/>
</svg>
