<svg width="24" height="24" viewBox="0 0 24 24" fill="none" xmlns="http://www.w3.org/2000/svg">
<path d="M8.89289 12C8.89289 12.7957 9.20896 13.5587 9.77157 14.1213C10.3342 14.684 11.0972 15 11.8929 15C12.6885 15 13.4516 14.684 14.0142 14.1213C14.5768 13.5587 14.8929 12.7957 14.8929 12C14.8929 11.2044 14.5768 10.4413 14.0142 9.87871C13.4516 9.3161 12.6885 9.00003 11.8929 9.00003C11.0972 9.00003 10.3342 9.3161 9.77157 9.87871C9.20896 10.4413 8.89289 11.2044 8.89289 12ZM23.5233 11.309C20.984 5.95985 17.1456 3.26788 12 3.26788C6.85182 3.26788 3.0161 5.95985 0.476818 11.3116C0.374967 11.5273 0.322144 11.7629 0.322144 12.0014C0.322144 12.2399 0.374967 12.4754 0.476818 12.6911C3.0161 18.0402 6.8545 20.7322 12 20.7322C17.1482 20.7322 20.984 18.0402 23.5233 12.6884C23.7295 12.2545 23.7295 11.7509 23.5233 11.309ZM11.8929 16.7143C9.28932 16.7143 7.1786 14.6036 7.1786 12C7.1786 9.39646 9.28932 7.28574 11.8929 7.28574C14.4965 7.28574 16.6072 9.39646 16.6072 12C16.6072 14.6036 14.4965 16.7143 11.8929 16.7143Z" fill="#D2E5E4" fill-opacity="0.4"/>
</svg>
