<svg width="72" height="72" viewBox="0 0 72 72" fill="none" xmlns="http://www.w3.org/2000/svg">
<path fill-rule="evenodd" clip-rule="evenodd" d="M36 72C55.8823 72 72 55.8823 72 36C72 16.1177 55.8823 0 36 0C16.1177 0 0 16.1177 0 36C0 55.8823 16.1177 72 36 72ZM48.8535 40.66V43H51.5537V40.66H53.2637V38.14H51.5537V35.26H49.0337H48.8535V38.14H45.3438L49.5737 30.4H46.6035L42.3735 38.23V40.66H48.8535ZM35.1782 43.36C31.7583 43.36 29.0581 40.66 29.0581 36.7C29.0581 32.74 31.7583 30.04 35.1782 30.04C38.5981 30.04 41.2983 32.74 41.2983 36.7C41.2983 40.66 38.5981 43.36 35.1782 43.36ZM35.1782 40.84C37.0679 40.84 38.418 39.49 38.418 36.7C38.418 33.91 37.0679 32.56 35.1782 32.56C33.2881 32.56 31.938 33.91 31.938 36.7C31.938 39.49 33.2881 40.84 35.1782 40.84ZM23.8398 40.66V43H26.54V40.66H28.25V38.14H26.54V35.26H24.02H23.8398V38.14H20.3301L24.5601 30.4H21.5898L17.3599 38.23V40.66H23.8398Z" fill="#95BBBE"/>
</svg>
