<svg width="16" height="16" viewBox="0 0 16 16" fill="none" xmlns="http://www.w3.org/2000/svg">
<g clip-path="url(#clip0_150_90)">
<path d="M15.9232 14.1429L8.49464 1.28571C8.38393 1.09464 8.19286 1 8 1C7.80714 1 7.61428 1.09464 7.50536 1.28571L0.0767843 14.1429C-0.142859 14.525 0.132141 15 0.571427 15H15.4286C15.8679 15 16.1429 14.525 15.9232 14.1429ZM7.42857 6.28571C7.42857 6.20714 7.49286 6.14286 7.57143 6.14286H8.42857C8.50714 6.14286 8.57143 6.20714 8.57143 6.28571V9.57143C8.57143 9.65 8.50714 9.71429 8.42857 9.71429H7.57143C7.49286 9.71429 7.42857 9.65 7.42857 9.57143V6.28571ZM8 12.5714C7.7757 12.5669 7.56213 12.4745 7.40512 12.3143C7.24811 12.154 7.16017 11.9386 7.16017 11.7143C7.16017 11.4899 7.24811 11.2745 7.40512 11.1143C7.56213 10.954 7.7757 10.8617 8 10.8571C8.2243 10.8617 8.43787 10.954 8.59487 11.1143C8.75188 11.2745 8.83982 11.4899 8.83982 11.7143C8.83982 11.9386 8.75188 12.154 8.59487 12.3143C8.43787 12.4745 8.2243 12.5669 8 12.5714Z" fill="#FC8B68"/>
</g>
<defs>
<clipPath id="clip0_150_90">
<rect width="16" height="16" fill="white"/>
</clipPath>
</defs>
</svg>
