<svg width="24" height="26" viewBox="0 0 24 26" fill="none" xmlns="http://www.w3.org/2000/svg">
<path d="M23.454 9.56781C23.4481 8.01552 22.9143 6.51172 21.9406 5.30505C22.2711 3.92547 22.168 2.47711 21.6453 1.15865C21.5945 1.03336 21.5165 0.920941 21.4172 0.829489C21.3178 0.738037 21.1994 0.669827 21.0706 0.629771C20.7015 0.50284 19.3041 0.264844 16.4566 2.11592C15.232 1.79175 13.9686 1.6387 12.7022 1.66108C11.4341 1.63841 10.1689 1.79147 8.94248 2.11592C6.02119 0.222534 4.50254 0.529283 4.1967 0.619193C4.06717 0.661039 3.94846 0.731105 3.84909 0.824368C3.74972 0.917632 3.67215 1.03178 3.62194 1.15865C3.09799 2.47282 2.99118 3.91715 3.3161 5.29447C2.31065 6.49509 1.77466 8.02138 1.808 9.58896C1.808 15.4384 5.14586 17.2048 8.20425 17.8289C8.04726 18.214 7.9392 18.6173 7.88259 19.0294C7.87708 19.0733 7.87708 19.1178 7.88259 19.1617V20.78C5.0984 21.0127 4.50254 19.3785 4.44454 19.1934C4.43104 19.1502 4.4152 19.1079 4.39708 19.0665C3.85932 17.966 2.91269 17.121 1.76054 16.713C1.52839 16.6351 1.27491 16.6529 1.05587 16.7625C0.836827 16.8721 0.670167 17.0645 0.59255 17.2974C0.514932 17.5302 0.532717 17.7844 0.64199 18.0041C0.751263 18.2238 0.943073 18.391 1.17523 18.4688C1.8137 18.7002 2.34615 19.1571 2.67278 19.754C3.0419 20.9546 4.55 22.8532 7.87204 22.6417V24.1648C7.87204 24.4103 7.96927 24.6457 8.14232 24.8193C8.31538 24.9929 8.5501 25.0904 8.79483 25.0904C9.03957 25.0904 9.27429 24.9929 9.44735 24.8193C9.6204 24.6457 9.71762 24.4103 9.71762 24.1648V19.2304C9.78764 18.6915 10.0215 18.1874 10.3873 17.7866C10.5155 17.6663 10.6065 17.5116 10.6497 17.3409C10.6928 17.1703 10.6862 16.9908 10.6307 16.8237C10.5752 16.6567 10.4731 16.5091 10.3365 16.3986C10.1999 16.288 10.0345 16.2191 9.86 16.1999C6.64342 15.8244 3.6694 14.7614 3.6694 9.55194C3.64801 8.92312 3.75694 8.29668 3.9893 7.71225C4.22166 7.12781 4.57238 6.59808 5.0193 6.15655C5.13949 6.0268 5.22253 5.86693 5.25966 5.69378C5.29678 5.52064 5.28661 5.34066 5.23023 5.17283C4.91958 4.26747 4.8993 3.28729 5.17222 2.36978C6.30448 2.62617 7.36776 3.12601 8.28862 3.83477C8.40695 3.91331 8.54141 3.96409 8.682 3.98332C8.82259 4.00254 8.9657 3.98973 9.10067 3.94584C10.2723 3.58816 11.4937 3.42208 12.718 3.45398C13.9406 3.42201 15.1603 3.58809 16.3301 3.94584C16.465 3.99012 16.6082 4.00313 16.7488 3.9839C16.8895 3.96466 17.024 3.91367 17.1421 3.83477C18.0291 3.15317 19.0443 2.65845 20.1267 2.38036C20.3955 3.30802 20.3716 4.29638 20.0581 5.20985C20.0065 5.36229 19.9959 5.52569 20.0274 5.68355C20.0589 5.84141 20.1313 5.98815 20.2374 6.10895C21.1104 7.04378 21.6048 8.27126 21.6243 9.55194C21.6243 14.7508 18.4973 15.8297 15.4336 16.1999C15.2502 16.2204 15.0772 16.2959 14.9372 16.4165C14.7972 16.5371 14.6968 16.6972 14.6489 16.876C14.6011 17.0548 14.6081 17.2439 14.6691 17.4186C14.7301 17.5933 14.8421 17.7455 14.9907 17.8553C15.3176 18.1039 15.6973 18.802 15.6973 19.9708V24.1596C15.6973 24.405 15.7945 24.6404 15.9676 24.814C16.1406 24.9876 16.3754 25.0851 16.6201 25.0851C16.8648 25.0851 17.0995 24.9876 17.2726 24.814C17.4457 24.6404 17.5429 24.405 17.5429 24.1596V19.9708C17.5525 19.2343 17.4182 18.503 17.1474 17.8183C19.6258 17.2894 23.454 15.6552 23.454 9.56781Z" fill="#DCEBEA"/>
</svg>
