<svg width="60" height="60" viewBox="0 0 60 60" fill="none" xmlns="http://www.w3.org/2000/svg">
<g clip-path="url(#clip0_295_176)">
<circle cx="30" cy="30" r="30" fill="#161720"/>
<path d="M42.375 38.9857C41.7012 37.3899 40.7236 35.9404 39.4964 34.7179C38.2729 33.4918 36.8236 32.5143 35.2285 31.8393C35.2142 31.8321 35.2 31.8286 35.1857 31.8214C37.4107 30.2143 38.8571 27.5964 38.8571 24.6429C38.8571 19.75 34.8928 15.7857 30 15.7857C25.1071 15.7857 21.1428 19.75 21.1428 24.6429C21.1428 27.5964 22.5892 30.2143 24.8142 31.825C24.7999 31.8321 24.7857 31.8357 24.7714 31.8429C23.1714 32.5179 21.7357 33.4857 20.5035 34.7214C19.2775 35.9449 18.3 37.3942 17.6249 38.9893C16.9618 40.5509 16.6042 42.2252 16.5714 43.9214C16.5704 43.9595 16.5771 43.9975 16.591 44.033C16.605 44.0685 16.6259 44.1008 16.6525 44.1281C16.6791 44.1554 16.7109 44.1771 16.7461 44.1919C16.7812 44.2067 16.819 44.2143 16.8571 44.2143H18.9999C19.1571 44.2143 19.2821 44.0893 19.2857 43.9357C19.3571 41.1786 20.4642 38.5964 22.4214 36.6393C24.4464 34.6143 27.1357 33.5 30 33.5C32.8642 33.5 35.5535 34.6143 37.5785 36.6393C39.5357 38.5964 40.6428 41.1786 40.7142 43.9357C40.7178 44.0929 40.8428 44.2143 41 44.2143H43.1428C43.1809 44.2143 43.2187 44.2067 43.2538 44.1919C43.289 44.1771 43.3208 44.1554 43.3474 44.1281C43.374 44.1008 43.3949 44.0685 43.4089 44.033C43.4228 43.9975 43.4295 43.9595 43.4285 43.9214C43.3928 42.2143 43.0392 40.5536 42.375 38.9857ZM30 30.7857C28.3607 30.7857 26.8178 30.1464 25.6571 28.9857C24.4964 27.825 23.8571 26.2821 23.8571 24.6429C23.8571 23.0036 24.4964 21.4607 25.6571 20.3C26.8178 19.1393 28.3607 18.5 30 18.5C31.6392 18.5 33.1821 19.1393 34.3428 20.3C35.5035 21.4607 36.1428 23.0036 36.1428 24.6429C36.1428 26.2821 35.5035 27.825 34.3428 28.9857C33.1821 30.1464 31.6392 30.7857 30 30.7857Z" fill="black"/>
<path d="M42.375 38.9857C41.7012 37.3899 40.7236 35.9404 39.4964 34.7179C38.2729 33.4918 36.8236 32.5143 35.2285 31.8393C35.2142 31.8321 35.2 31.8286 35.1857 31.8214C37.4107 30.2143 38.8571 27.5964 38.8571 24.6429C38.8571 19.75 34.8928 15.7857 30 15.7857C25.1071 15.7857 21.1428 19.75 21.1428 24.6429C21.1428 27.5964 22.5892 30.2143 24.8142 31.825C24.7999 31.8321 24.7857 31.8357 24.7714 31.8429C23.1714 32.5179 21.7357 33.4857 20.5035 34.7214C19.2775 35.9449 18.3 37.3942 17.6249 38.9893C16.9618 40.5509 16.6042 42.2252 16.5714 43.9214C16.5704 43.9595 16.5771 43.9975 16.591 44.033C16.605 44.0685 16.6259 44.1008 16.6525 44.1281C16.6791 44.1554 16.7109 44.1771 16.7461 44.1919C16.7812 44.2067 16.819 44.2143 16.8571 44.2143H18.9999C19.1571 44.2143 19.2821 44.0893 19.2857 43.9357C19.3571 41.1786 20.4642 38.5964 22.4214 36.6393C24.4464 34.6143 27.1357 33.5 30 33.5C32.8642 33.5 35.5535 34.6143 37.5785 36.6393C39.5357 38.5964 40.6428 41.1786 40.7142 43.9357C40.7178 44.0929 40.8428 44.2143 41 44.2143H43.1428C43.1809 44.2143 43.2187 44.2067 43.2538 44.1919C43.289 44.1771 43.3208 44.1554 43.3474 44.1281C43.374 44.1008 43.3949 44.0685 43.4089 44.033C43.4228 43.9975 43.4295 43.9595 43.4285 43.9214C43.3928 42.2143 43.0392 40.5536 42.375 38.9857ZM30 30.7857C28.3607 30.7857 26.8178 30.1464 25.6571 28.9857C24.4964 27.825 23.8571 26.2821 23.8571 24.6429C23.8571 23.0036 24.4964 21.4607 25.6571 20.3C26.8178 19.1393 28.3607 18.5 30 18.5C31.6392 18.5 33.1821 19.1393 34.3428 20.3C35.5035 21.4607 36.1428 23.0036 36.1428 24.6429C36.1428 26.2821 35.5035 27.825 34.3428 28.9857C33.1821 30.1464 31.6392 30.7857 30 30.7857Z" fill="url(#paint0_linear_295_176)"/>
</g>
<defs>
<linearGradient id="paint0_linear_295_176" x1="16.5713" y1="30" x2="43.4286" y2="30" gradientUnits="userSpaceOnUse">
<stop stop-color="#E0B9FF"/>
<stop offset="0.435" stop-color="#A5A9FF"/>
<stop offset="1" stop-color="#B2E3FF"/>
</linearGradient>
<clipPath id="clip0_295_176">
<rect width="60" height="60" fill="white"/>
</clipPath>
</defs>
</svg>
