<svg width="60" height="60" viewBox="0 0 60 60" fill="none" xmlns="http://www.w3.org/2000/svg">
<g clip-path="url(#clip0_295_192)">
<circle cx="30" cy="30" r="30" fill="#161720"/>
<path d="M30.3466 14.6429C24.9001 14.6286 20.1073 17.4464 17.368 21.7036C17.2466 21.8929 17.3823 22.1429 17.6073 22.1429H20.118C20.2894 22.1429 20.4501 22.0679 20.5573 21.9357C20.8073 21.6321 21.0751 21.3393 21.3573 21.0607C22.5216 19.9 23.8751 18.9857 25.3823 18.35C26.9394 17.6929 28.5966 17.3571 30.3073 17.3571C32.018 17.3571 33.6751 17.6893 35.2323 18.35C36.7394 18.9857 38.093 19.9 39.2573 21.0607C40.4216 22.2214 41.3323 23.575 41.9716 25.0786C42.6323 26.6357 42.9644 28.2893 42.9644 30C42.9644 31.7107 42.6287 33.3643 41.9716 34.9214C41.3358 36.425 40.4216 37.7786 39.2573 38.9393C38.093 40.1 36.7394 41.0143 35.2323 41.65C33.6739 42.3082 31.9989 42.6459 30.3073 42.6429C28.5966 42.6429 26.9394 42.3071 25.3823 41.65C23.8781 41.0149 22.5112 40.0944 21.3573 38.9393C21.0751 38.6571 20.8108 38.3643 20.5573 38.0643C20.4501 37.9321 20.2858 37.8571 20.118 37.8571H17.6073C17.3823 37.8571 17.243 38.1071 17.368 38.2964C20.1037 42.5429 24.8751 45.3571 30.3073 45.3571C38.743 45.3571 45.593 38.5679 45.6787 30.1571C45.7644 21.6107 38.9037 14.6643 30.3466 14.6429ZM25.8223 34V31.2857H14.608C14.4508 31.2857 14.3223 31.1571 14.3223 31V29C14.3223 28.8429 14.4508 28.7143 14.608 28.7143H25.8223V26C25.8223 25.7607 26.1008 25.625 26.2866 25.775L31.3544 29.775C31.3886 29.8017 31.4162 29.8359 31.4352 29.8749C31.4542 29.9138 31.464 29.9566 31.464 30C31.464 30.0434 31.4542 30.0862 31.4352 30.1251C31.4162 30.1641 31.3886 30.1983 31.3544 30.225L26.2866 34.225C26.1008 34.3714 25.8223 34.2393 25.8223 34Z" fill="black"/>
<path d="M30.3466 14.6429C24.9001 14.6286 20.1073 17.4464 17.368 21.7036C17.2466 21.8929 17.3823 22.1429 17.6073 22.1429H20.118C20.2894 22.1429 20.4501 22.0679 20.5573 21.9357C20.8073 21.6321 21.0751 21.3393 21.3573 21.0607C22.5216 19.9 23.8751 18.9857 25.3823 18.35C26.9394 17.6929 28.5966 17.3571 30.3073 17.3571C32.018 17.3571 33.6751 17.6893 35.2323 18.35C36.7394 18.9857 38.093 19.9 39.2573 21.0607C40.4216 22.2214 41.3323 23.575 41.9716 25.0786C42.6323 26.6357 42.9644 28.2893 42.9644 30C42.9644 31.7107 42.6287 33.3643 41.9716 34.9214C41.3358 36.425 40.4216 37.7786 39.2573 38.9393C38.093 40.1 36.7394 41.0143 35.2323 41.65C33.6739 42.3082 31.9989 42.6459 30.3073 42.6429C28.5966 42.6429 26.9394 42.3071 25.3823 41.65C23.8781 41.0149 22.5112 40.0944 21.3573 38.9393C21.0751 38.6571 20.8108 38.3643 20.5573 38.0643C20.4501 37.9321 20.2858 37.8571 20.118 37.8571H17.6073C17.3823 37.8571 17.243 38.1071 17.368 38.2964C20.1037 42.5429 24.8751 45.3571 30.3073 45.3571C38.743 45.3571 45.593 38.5679 45.6787 30.1571C45.7644 21.6107 38.9037 14.6643 30.3466 14.6429ZM25.8223 34V31.2857H14.608C14.4508 31.2857 14.3223 31.1571 14.3223 31V29C14.3223 28.8429 14.4508 28.7143 14.608 28.7143H25.8223V26C25.8223 25.7607 26.1008 25.625 26.2866 25.775L31.3544 29.775C31.3886 29.8017 31.4162 29.8359 31.4352 29.8749C31.4542 29.9138 31.464 29.9566 31.464 30C31.464 30.0434 31.4542 30.0862 31.4352 30.1251C31.4162 30.1641 31.3886 30.1983 31.3544 30.225L26.2866 34.225C26.1008 34.3714 25.8223 34.2393 25.8223 34Z" fill="url(#paint0_linear_295_192)"/>
</g>
<defs>
<linearGradient id="paint0_linear_295_192" x1="14.3223" y1="30" x2="45.6795" y2="30" gradientUnits="userSpaceOnUse">
<stop stop-color="#E0B9FF"/>
<stop offset="0.435" stop-color="#A5A9FF"/>
<stop offset="1" stop-color="#B2E3FF"/>
</linearGradient>
<clipPath id="clip0_295_192">
<rect width="60" height="60" fill="white"/>
</clipPath>
</defs>
</svg>
