<svg width="16" height="17" viewBox="0 0 16 17" fill="none" xmlns="http://www.w3.org/2000/svg">
<g clip-path="url(#clip0_297_273)">
<path d="M8 0.5C3.58214 0.5 0 4.08214 0 8.5C0 12.9179 3.58214 16.5 8 16.5C12.4179 16.5 16 12.9179 16 8.5C16 4.08214 12.4179 0.5 8 0.5ZM11.4554 5.8875L7.69464 11.1018C7.64208 11.1751 7.57279 11.2349 7.49251 11.2762C7.41224 11.3174 7.32329 11.3389 7.23304 11.3389C7.14279 11.3389 7.05384 11.3174 6.97356 11.2762C6.89328 11.2349 6.82399 11.1751 6.77143 11.1018L4.54464 8.01607C4.47679 7.92143 4.54464 7.78929 4.66071 7.78929H5.49821C5.68036 7.78929 5.85357 7.87679 5.96071 8.02679L7.23214 9.79107L10.0393 5.89821C10.1464 5.75 10.3179 5.66071 10.5018 5.66071H11.3393C11.4554 5.66071 11.5232 5.79286 11.4554 5.8875Z" fill="#95BBBE"/>
</g>
<defs>
<clipPath id="clip0_297_273">
<rect width="16" height="16" fill="white" transform="translate(0 0.5)"/>
</clipPath>
</defs>
</svg>
