<svg width="60" height="60" viewBox="0 0 60 60" fill="none" xmlns="http://www.w3.org/2000/svg">
<g clip-path="url(#clip0_295_187)">
<circle cx="30" cy="30" r="30" fill="#161720"/>
<path d="M41.5037 28.4714C40.8104 26.9109 39.8024 25.5103 38.543 24.3571L37.5037 23.4036C37.4684 23.3721 37.426 23.3497 37.38 23.3385C37.3341 23.3273 37.2861 23.3275 37.2402 23.3391C37.1944 23.3507 37.1521 23.3734 37.1171 23.4052C37.0821 23.437 37.0554 23.4769 37.0394 23.5214L36.5751 24.8536C36.2859 25.6893 35.7537 26.5429 35.0001 27.3821C34.9501 27.4357 34.893 27.45 34.8537 27.4536C34.8144 27.4571 34.7537 27.45 34.7001 27.4C34.6501 27.3571 34.6251 27.2929 34.6287 27.2286C34.7609 25.0786 34.118 22.6536 32.7109 20.0143C31.5466 17.8214 29.9287 16.1107 27.9073 14.9179L26.4323 14.05C26.2394 13.9357 25.993 14.0857 26.0037 14.3107L26.0823 16.025C26.1359 17.1964 26.0001 18.2321 25.6787 19.0929C25.2859 20.1464 24.7216 21.125 24.0001 22.0036C23.4981 22.6142 22.929 23.1664 22.3037 23.65C20.7977 24.8077 19.573 26.2912 18.7216 27.9893C17.8722 29.7022 17.4297 31.5881 17.4287 33.5C17.4287 35.1857 17.7609 36.8179 18.418 38.3571C19.0525 39.8392 19.9682 41.1842 21.1144 42.3179C22.2716 43.4607 23.6144 44.3607 25.1109 44.9857C26.6609 45.6357 28.3037 45.9643 30.0001 45.9643C31.6966 45.9643 33.3394 45.6357 34.8894 44.9893C36.3822 44.3679 37.7396 43.4618 38.8859 42.3214C40.043 41.1786 40.9501 39.8429 41.5823 38.3607C42.2384 36.8256 42.575 35.173 42.5716 33.5036C42.5716 31.7607 42.2144 30.0679 41.5037 28.4714ZM37.1787 40.5893C35.2609 42.4893 32.7144 43.5321 30.0001 43.5321C27.2859 43.5321 24.7394 42.4893 22.8216 40.5893C20.9109 38.6929 19.8573 36.1786 19.8573 33.5036C19.8573 31.95 20.2073 30.4607 20.8966 29.075C21.568 27.7214 22.568 26.5107 23.7823 25.5786C24.5567 24.9864 25.2591 24.3056 25.8751 23.55C26.768 22.4607 27.468 21.2464 27.9537 19.9429C28.1529 19.4051 28.2977 18.8488 28.3859 18.2821C29.2466 19.075 29.968 20.0321 30.5716 21.1536C31.7644 23.3893 32.3144 25.3786 32.2073 27.0714C32.1817 27.4701 32.2468 27.8694 32.3977 28.2394C32.5487 28.6093 32.7815 28.9402 33.0787 29.2071C33.3363 29.4398 33.6375 29.619 33.9649 29.7342C34.2923 29.8495 34.6393 29.8986 34.9859 29.8786C35.6894 29.8429 36.3359 29.5321 36.8073 29.0071C37.2823 28.475 37.693 27.9321 38.0359 27.3786C38.5359 28.0179 38.9537 28.7143 39.2859 29.4643C39.8537 30.7429 40.143 32.1036 40.143 33.5036C40.143 36.1786 39.0894 38.6964 37.1787 40.5893Z" fill="black"/>
<path d="M41.5037 28.4714C40.8104 26.9109 39.8024 25.5103 38.543 24.3571L37.5037 23.4036C37.4684 23.3721 37.426 23.3497 37.38 23.3385C37.3341 23.3273 37.2861 23.3275 37.2402 23.3391C37.1944 23.3507 37.1521 23.3734 37.1171 23.4052C37.0821 23.437 37.0554 23.4769 37.0394 23.5214L36.5751 24.8536C36.2859 25.6893 35.7537 26.5429 35.0001 27.3821C34.9501 27.4357 34.893 27.45 34.8537 27.4536C34.8144 27.4571 34.7537 27.45 34.7001 27.4C34.6501 27.3571 34.6251 27.2929 34.6287 27.2286C34.7609 25.0786 34.118 22.6536 32.7109 20.0143C31.5466 17.8214 29.9287 16.1107 27.9073 14.9179L26.4323 14.05C26.2394 13.9357 25.993 14.0857 26.0037 14.3107L26.0823 16.025C26.1359 17.1964 26.0001 18.2321 25.6787 19.0929C25.2859 20.1464 24.7216 21.125 24.0001 22.0036C23.4981 22.6142 22.929 23.1664 22.3037 23.65C20.7977 24.8077 19.573 26.2912 18.7216 27.9893C17.8722 29.7022 17.4297 31.5881 17.4287 33.5C17.4287 35.1857 17.7609 36.8179 18.418 38.3571C19.0525 39.8392 19.9682 41.1842 21.1144 42.3179C22.2716 43.4607 23.6144 44.3607 25.1109 44.9857C26.6609 45.6357 28.3037 45.9643 30.0001 45.9643C31.6966 45.9643 33.3394 45.6357 34.8894 44.9893C36.3822 44.3679 37.7396 43.4618 38.8859 42.3214C40.043 41.1786 40.9501 39.8429 41.5823 38.3607C42.2384 36.8256 42.575 35.173 42.5716 33.5036C42.5716 31.7607 42.2144 30.0679 41.5037 28.4714ZM37.1787 40.5893C35.2609 42.4893 32.7144 43.5321 30.0001 43.5321C27.2859 43.5321 24.7394 42.4893 22.8216 40.5893C20.9109 38.6929 19.8573 36.1786 19.8573 33.5036C19.8573 31.95 20.2073 30.4607 20.8966 29.075C21.568 27.7214 22.568 26.5107 23.7823 25.5786C24.5567 24.9864 25.2591 24.3056 25.8751 23.55C26.768 22.4607 27.468 21.2464 27.9537 19.9429C28.1529 19.4051 28.2977 18.8488 28.3859 18.2821C29.2466 19.075 29.968 20.0321 30.5716 21.1536C31.7644 23.3893 32.3144 25.3786 32.2073 27.0714C32.1817 27.4701 32.2468 27.8694 32.3977 28.2394C32.5487 28.6093 32.7815 28.9402 33.0787 29.2071C33.3363 29.4398 33.6375 29.619 33.9649 29.7342C34.2923 29.8495 34.6393 29.8986 34.9859 29.8786C35.6894 29.8429 36.3359 29.5321 36.8073 29.0071C37.2823 28.475 37.693 27.9321 38.0359 27.3786C38.5359 28.0179 38.9537 28.7143 39.2859 29.4643C39.8537 30.7429 40.143 32.1036 40.143 33.5036C40.143 36.1786 39.0894 38.6964 37.1787 40.5893Z" fill="url(#paint0_linear_295_187)"/>
</g>
<defs>
<linearGradient id="paint0_linear_295_187" x1="17.4287" y1="29.9875" x2="42.5716" y2="29.9875" gradientUnits="userSpaceOnUse">
<stop stop-color="#E0B9FF"/>
<stop offset="0.435" stop-color="#A5A9FF"/>
<stop offset="1" stop-color="#B2E3FF"/>
</linearGradient>
<clipPath id="clip0_295_187">
<rect width="60" height="60" fill="white"/>
</clipPath>
</defs>
</svg>
