<svg width="37" height="37" viewBox="0 0 37 37" fill="none" xmlns="http://www.w3.org/2000/svg">
<path d="M20.4703 3.45487C20.0609 2.74031 19.3244 2.3125 18.5 2.3125C17.6756 2.3125 16.9391 2.73916 16.5297 3.45487L13.4807 8.78866C12.9813 9.66138 12.7186 10.6495 12.7188 11.655V31.2188H15.0312L15.9239 33.8966C16.0006 34.127 16.1479 34.3273 16.3448 34.4692C16.5418 34.6112 16.7784 34.6876 17.0212 34.6875H19.9788C20.2216 34.6876 20.4582 34.6112 20.6552 34.4692C20.8521 34.3273 20.9994 34.127 21.0761 33.8966L21.9688 31.2188H24.2812V11.655C24.2812 10.6488 24.0186 9.65996 23.5193 8.78634L20.4703 3.45487ZM18.5 11.5625C18.808 11.5555 19.1142 11.6102 19.4007 11.7232C19.6873 11.8362 19.9484 12.0053 20.1687 12.2206C20.389 12.436 20.564 12.6931 20.6835 12.977C20.8031 13.2609 20.8647 13.5658 20.8648 13.8738C20.8649 14.1819 20.8034 14.4868 20.684 14.7708C20.5646 15.0547 20.3897 15.3119 20.1695 15.5274C19.9493 15.7428 19.6883 15.912 19.4018 16.0252C19.1153 16.1384 18.8091 16.1932 18.5012 16.1863C17.8969 16.173 17.322 15.9236 16.8993 15.4916C16.4767 15.0596 16.2399 14.4793 16.2398 13.875C16.2396 13.2706 16.4761 12.6902 16.8985 12.258C17.3209 11.8258 17.8958 11.5762 18.5 11.5625ZM17.3438 18.5H19.6562C19.9629 18.5 20.257 18.6218 20.4738 18.8387C20.6907 19.0555 20.8125 19.3496 20.8125 19.6562C20.8125 19.9629 20.6907 20.257 20.4738 20.4738C20.257 20.6907 19.9629 20.8125 19.6562 20.8125H17.3438C17.0371 20.8125 16.743 20.6907 16.5262 20.4738C16.3093 20.257 16.1875 19.9629 16.1875 19.6562C16.1875 19.3496 16.3093 19.0555 16.5262 18.8387C16.743 18.6218 17.0371 18.5 17.3438 18.5ZM10.4062 18.8411V31.2188H5.78125C5.47459 31.2188 5.1805 31.0969 4.96366 30.8801C4.74682 30.6633 4.625 30.3692 4.625 30.0625V26.5938C4.625 22.9342 7.06816 19.8389 10.4062 18.8411ZM32.375 26.5938V30.0625C32.375 30.3692 32.2532 30.6633 32.0363 30.8801C31.8195 31.0969 31.5254 31.2188 31.2188 31.2188H26.5938V18.8411C29.933 19.8389 32.375 22.9342 32.375 26.5938Z" fill="#46495E"/>
</svg>
